<svg xmlns="http://www.w3.org/2000/svg" width="1920" height="1260" viewBox="0 0 1920 1260">
  <defs>
    <style>
      .cls-1 {
        fill-rule: evenodd;
      }
    </style>
  </defs>
  <path id="Color_Fill_1" data-name="Color Fill 1" class="cls-1" d="M0,0H1920V800c-43.17.6-95.25,2.988-132-4-15.78-3-32.58,5.353-39-7q6.495-14.5,13-29c11.05-55.011-40.46-108.022-96-96q-23.505,9-47,18c-2.56-1.632-2.42-1.232-4-4-5.12-13.867,4.88-42.787-4-53-11.72-17.052-103.69-16.361-136-17-55.35-1.1-118.41-2-177-2-27.79,0-61.61-2.577-86,2-18.43,3.46-42.12-.982-58,2-41.01,7.7-94.91-8.584-118,16q1.005,51,2,102,7.005,38,14,76H976c-18-4.013-65.367-16.084-94-8-20.489,5.785-78.657,12.241-108,6-17.46-3.714-36.333-8.5-62-8-10.285.2-13.954,4.366-22,6H498c-18.77-3.583-49.379-4.779-66-9l-36,1c-17.942-3.424-28.381-6.812-48-6H304l-22-5-9,6-27-1c-6.365,2.367-6.513,11.028-16,12l-36-8-12,8c-19.35,4.741-39.436.042-59,0L0,800V0ZM1668,692c13.35-.258,28.63-1.17,38,3,25.15,11.2,40.83,53.569,21,83-17.21,25.542-94.87,69.84-141,61-0.33-1-.67-2-1-3-2.87-10,10.57-31.637,14-42l6-30c4.44-7.026,13.9-8.526,18-17C1641.12,709.542,1629.58,711.988,1668,692Z"/>
</svg>
